<?xml version="1.0" encoding="iso-8859-1"?>
<!-- Generator: Adobe Illustrator 16.0.0, SVG Export Plug-In . SVG Version: 6.00 Build 0)  -->
<!DOCTYPE svg PUBLIC "-//W3C//DTD SVG 1.1//EN" "http://www.w3.org/Graphics/SVG/1.1/DTD/svg11.dtd">
<svg version="1.1" id="Capa_1" xmlns="http://www.w3.org/2000/svg" xmlns:xlink="http://www.w3.org/1999/xlink" x="0px" y="0px"
	 width="53.595px" height="53.594px" viewBox="0 0 53.595 53.594" style="enable-background:new 0 0 53.595 53.594;"
	 xml:space="preserve">
<g>
	<g>
		<path d="M28.608,24.242c2.97,0,3.428,0.062,3.428,2.876c0,3.711,0,7.423,0,11.137c0,3.51,0,7.02,0,10.529
			c0,1.726-0.497,3.954,1.744,4.395c1.854,0.363,11.332,1.381,11.332-2.195c0-6.35,0-12.7,0-19.049c0-2.434,0-4.866,0-7.298
			c0-0.977,4.82-0.093,6.194-0.46c4.922-1.319-1.224-8.021-2.624-10.275c-2.448-3.94-4.897-7.878-7.348-11.818
			c-1.229-1.98-2.719-2.337-4.616-0.954c-0.01,0.005-0.017,0.01-0.023,0.016c-0.02,0.014-0.037,0.022-0.057,0.037
			c-0.154,0.116-0.219,0.21-0.221,0.288c-3.232,5.201-6.467,10.401-9.7,15.602c-0.631,1.016-2.848,3.41-2.878,4.661
			C23.764,24.843,26.095,24.242,28.608,24.242z M28.594,23.097c-0.427,0.036-0.767,0.066-0.941,0.066
			c-0.127,0-0.223-0.018-0.334-0.027c0.048-0.062,0.099-0.122,0.141-0.188c2.132-3.41,4.33-6.778,6.66-10.062
			c0.812-1.102,1.627-2.199,2.445-3.292c0.33-0.442,0.395-0.402,0.141,0.087c-1.03,1.985-2.098,3.954-3.19,5.91
			c-1.625,2.455-3.244,4.913-4.863,7.37C28.617,23.01,28.613,23.051,28.594,23.097z M43.182,47.396c0,1.137,0,2.272,0,3.41
			c0,1.487-0.498,1.315-1.923,1.315c-0.623,0-1.86,0.151-3.143,0.191c0.156-0.119,0.298-0.248,0.393-0.393
			c1.603-2.425,3.144-4.892,4.672-7.366C43.182,45.501,43.182,46.449,43.182,47.396z M43.182,41.116
			c-2.231,3.625-4.454,7.258-6.795,10.806c-0.078,0.117-0.121,0.229-0.137,0.332c-0.39-0.047-0.75-0.12-1.066-0.229
			c0.028-0.049,0.06-0.093,0.088-0.145c2.598-4.697,5.249-9.363,7.91-14.024C43.182,38.942,43.182,40.029,43.182,41.116z
			 M47.243,15.206c0.304,0.497,0.516,0.847,0.607,0.994c0.702,1.13,1.421,2.255,2.133,3.385c-0.015,0.021-0.032,0.027-0.046,0.049
			c-0.678,1.094-1.342,2.197-2,3.304c-0.049,0.083-0.063,0.157-0.083,0.233c-1.354-0.002-2.652-0.034-3.086,0.146
			c-2.207,0.914-2.199,4.98-1.935,8.473c-2.9,5.142-5.784,10.291-8.865,15.299c0-1.805,0-3.608,0-5.413c0-1.159,0-2.319,0-3.479
			c1.825-3.351,3.698-6.68,5.602-9.994c2.67-4.252,5.223-8.577,7.662-12.963C47.236,15.228,47.238,15.216,47.243,15.206z
			 M44.762,11.152c0.457,0.739,0.89,1.444,1.279,2.083c-0.011,0.017-0.024,0.022-0.033,0.041c-2.81,5.016-5.703,9.992-8.568,14.982
			c-1.134,1.804-2.297,3.589-3.471,5.366c0-1.146,0-2.292,0-3.438c0-0.114,0.006-0.235,0.009-0.354
			c0.509-0.819,1.019-1.64,1.513-2.467c3.174-5.316,6.256-10.706,9.246-16.143C44.747,11.202,44.75,11.174,44.762,11.152z
			 M34.092,25.845c1.009-1.648,2.018-3.297,3.028-4.945c0.289-0.471,0.305-0.461,0.031,0.019c-0.993,1.748-2.018,3.475-3.044,5.201
			C34.104,26.027,34.096,25.937,34.092,25.845z M41.712,6.436c0.017-0.024,0.022-0.056,0.036-0.081
			c0.383,0.594,0.775,1.213,1.169,1.838c-0.018,0.024-0.041,0.034-0.059,0.062c-3.165,5.05-6.296,10.121-9.411,15.202
			c-0.402-0.332-1.204-0.458-2.1-0.483c0.01-0.016,0.026-0.029,0.036-0.044c0.33-0.57,0.659-1.137,0.993-1.698
			c0.921-1.549,1.822-3.109,2.714-4.675c0.401-0.672,0.805-1.345,1.213-2.014C38.099,11.834,39.899,9.132,41.712,6.436z
			 M28.516,17.102c3.235-5.205,6.473-10.41,9.709-15.615c0.188,0.015,0.771,0.757,1.568,1.912c-0.336,0.726-0.676,1.449-1.022,2.17
			c-0.242,0.497-0.889,0.847-1.424,0.967c-0.392,0.087-0.752,0.235-0.89,0.409c-1.526,1.941-2.996,3.921-4.422,5.928
			c-2.102,2.854-4.146,5.749-6.077,8.707C26.248,20.098,27.967,17.986,28.516,17.102z"/>
		<path d="M15.355,52.796c1.746-0.635,2.112-1.573,3.025-3.042c2.034-3.272,4.069-6.545,6.104-9.816
			c1.752-2.818,3.504-5.635,5.256-8.453c1.94-3.121-5.926-2.397-7.368-2.331c-1.569-0.857-0.816-4.439-0.816-5.781
			c0-4.1,0-8.201,0-12.302c0-2.871,0-5.743,0-8.614c0-2.359-1.754-2.255-3.608-2.255c-1.834,0-4.804-0.489-6.93,0.056
			c-0.002-0.006,0.004-0.024-0.002-0.024h-0.118c-0.425,0-0.8,0.197-1.051,0.5C9.02,1.236,8.482,2.049,8.482,3.373
			c0,7.097,0,14.193,0,21.29c0,1.137,0,2.273,0,3.409c0,1.105,0.791,1.087-0.713,1.087c-1.588,0-3.532-0.273-5.231,0.036
			c-0.049,0-0.084,0.001-0.088,0.001c-0.002,0-0.013,0.018-0.017,0.021c-0.445,0.088-0.877,0.208-1.274,0.396
			c-3.227,1.537,4.94,11.648,5.952,13.276C8.323,44.841,12.011,54.01,15.355,52.796z M8.773,42.038
			c-0.266-0.485-0.525-0.94-0.78-1.352c-0.079-0.127-0.264-0.424-0.515-0.833c0.04-0.047,0.085-0.079,0.12-0.142
			c2.81-5.017,5.704-9.992,8.569-14.983c1.129-1.796,2.288-3.574,3.456-5.344c0,0.024,0,0.048,0,0.073c0,0.799-0.2,2.44-0.3,4.193
			c-0.404,0.656-0.812,1.31-1.207,1.971c-3.174,5.316-6.256,10.705-9.246,16.143C8.826,41.845,8.802,41.944,8.773,42.038z
			 M19.384,27.357c-0.965,1.577-1.93,3.155-2.897,4.73c-0.289,0.471-0.304,0.461-0.031-0.02c0.946-1.667,1.924-3.312,2.902-4.958
			C19.366,27.192,19.373,27.277,19.384,27.357z M27.722,32.003c-1.21,1.946-2.421,3.894-3.631,5.84
			c-1.864,2.998-3.729,5.996-5.593,8.994c-0.981,1.577-1.861,3.651-3.248,4.96c-0.635-0.471-1.23-1.077-1.792-1.772
			c0.113-0.058,0.222-0.154,0.303-0.329c0.352-0.762,0.71-1.521,1.075-2.278c0.241-0.496,0.889-0.847,1.424-0.967
			c0.391-0.087,0.751-0.234,0.889-0.409c1.527-1.94,2.995-3.921,4.422-5.928c2.191-2.977,4.324-5.997,6.328-9.088
			C27.998,31.291,27.969,31.607,27.722,32.003z M24.957,30.027c0.02-0.03,0.02-0.055,0.035-0.084
			c0.395,0.03,0.775,0.074,1.131,0.138c-2.124,3.396-4.315,6.751-6.636,10.021c-0.81,1.102-1.626,2.199-2.444,3.292
			c-0.33,0.442-0.396,0.402-0.141-0.087c1.031-1.985,2.097-3.954,3.191-5.91C21.718,34.942,23.337,32.484,24.957,30.027z
			 M20.679,29.888c0.006,0.002,0.014,0.001,0.02,0.003c0.021,0.039,0.101,0.063,0.266,0.063c0.196,0,0.718-0.029,1.381-0.051
			c-0.041,0.052-0.093,0.1-0.124,0.154c-0.329,0.57-0.659,1.137-0.994,1.698c-0.92,1.549-1.822,3.108-2.713,4.675
			c-0.402,0.672-0.805,1.345-1.213,2.014c-1.794,2.708-3.596,5.411-5.407,8.107c-0.152,0.226-0.23,0.523-0.238,0.823
			c-0.454-0.765-0.886-1.554-1.3-2.335c0.143-0.043,0.281-0.131,0.392-0.308c3.17-5.059,6.307-10.139,9.427-15.229
			C20.322,29.667,20.484,29.807,20.679,29.888z M10.413,1.906c0-1.496,2.973-1.056,4.77-0.934c-0.026,0.033-0.063,0.062-0.086,0.096
			c-1.605,2.431-3.151,4.904-4.684,7.387C10.413,6.271,10.413,4.088,10.413,1.906z M10.413,11.891
			c2.236-3.631,4.462-7.27,6.807-10.824c0.009-0.014,0.008-0.025,0.017-0.04c0.381,0.026,0.732,0.08,1.044,0.179
			c-2.583,4.67-5.221,9.312-7.867,13.947C10.413,14.066,10.413,12.978,10.413,11.891z M6.31,37.929
			c-0.844-1.406-1.841-3.111-2.634-4.586c0.659-1.065,1.305-2.139,1.945-3.215c2.247,0.037,4.791-0.226,4.791-1.829
			c0-2.154,0-4.308,0-6.461c3.019-5.344,6.008-10.705,9.211-15.911c0,2.964,0,5.928,0,8.892c-1.822,3.342-3.689,6.663-5.587,9.969
			c-2.671,4.251-5.223,8.577-7.662,12.963C6.345,37.803,6.333,37.869,6.31,37.929z"/>
	</g>
</g>
<g>
</g>
<g>
</g>
<g>
</g>
<g>
</g>
<g>
</g>
<g>
</g>
<g>
</g>
<g>
</g>
<g>
</g>
<g>
</g>
<g>
</g>
<g>
</g>
<g>
</g>
<g>
</g>
<g>
</g>
</svg>
